name C:\Users\u0101727\Documents\MyRepositories\upper-imu-dc\Results\main_tracking\Case_41\FLX01_angularVelocities_groundFrame.mot
datacolumns 4
datarows 47
range 2.01000000 2.47000000
endheader 
time	radius_imu_x	radius_imu_y	radius_imu_z	
          2.01000000	         -0.79719866	          0.62550461	          0.99924344	
          2.02000000	         -0.80989983	          0.55467591	          0.99912225	
          2.03000000	         -0.81856320	          0.48743129	          0.99732558	
          2.04000000	         -0.82286645	          0.42434497	          0.99396337	
          2.05000000	         -0.82266152	          0.36588103	          0.98918328	
          2.06000000	         -0.81799379	          0.31237045	          0.98316258	
          2.07000000	         -0.80912240	          0.26398553	          0.97609858	
          2.08000000	         -0.79653210	          0.22071429	          0.96819866	
          2.09000000	         -0.78092661	          0.18234141	          0.95967033	
          2.10000000	         -0.76319582	          0.14844384	          0.95071210	
          2.11000000	         -0.74435379	          0.11840899	          0.94150473	
          2.12000000	         -0.72545067	          0.09147936	          0.93220415	
          2.13000000	         -0.70746940	          0.06682087	          0.92293848	
          2.14000000	         -0.69122477	          0.04360397	          0.91381120	
          2.15000000	         -0.67728816	          0.02107958	          0.90490951	
          2.16000000	         -0.66595658	         -0.00136726	          0.89631378	
          2.17000000	         -0.65726807	         -0.02419268	          0.88810310	
          2.18000000	         -0.65104839	         -0.04769204	          0.88035440	
          2.19000000	         -0.64696937	         -0.07201001	          0.87313598	
          2.20000000	         -0.64460384	         -0.09715415	          0.86649844	
          2.21000000	         -0.64347173	         -0.12301014	          0.86046680	
          2.22000000	         -0.64308100	         -0.14936400	          0.85503636	
          2.23000000	         -0.64296917	         -0.17593773	          0.85017284	
          2.24000000	         -0.64274339	         -0.20243741	          0.84581588	
          2.25000000	         -0.64211018	         -0.22860388	          0.84188393	
          2.26000000	         -0.64088666	         -0.25425318	          0.83827823	
          2.27000000	         -0.63899129	         -0.27929746	          0.83488468	
          2.28000000	         -0.63641737	         -0.30374169	          0.83157400	
          2.29000000	         -0.63319542	         -0.32765687	          0.82820257	
          2.30000000	         -0.62935271	         -0.35113603	          0.82461614	
          2.31000000	         -0.62487782	         -0.37424213	          0.82065739	
          2.32000000	         -0.61969675	         -0.39695869	          0.81617692	
          2.33000000	         -0.61366624	         -0.41915498	          0.81104590	
          2.34000000	         -0.60658810	         -0.44057734	          0.80516787	
          2.35000000	         -0.59824245	         -0.46087129	          0.79848735	
          2.36000000	         -0.58843019	         -0.47962836	          0.79099371	
          2.37000000	         -0.57701324	         -0.49644412	          0.78272038	
          2.38000000	         -0.56394575	         -0.51097412	          0.77373992	
          2.39000000	         -0.54929307	         -0.52297721	          0.76415580	
          2.40000000	         -0.53323665	         -0.53233871	          0.75409230	
          2.41000000	         -0.51606413	         -0.53907168	          0.74368415	
          2.42000000	         -0.49814754	         -0.54330067	          0.73306732	
          2.43000000	         -0.47991333	         -0.54523545	          0.72237199	
          2.44000000	         -0.46180776	         -0.54514000	          0.71171836	
          2.45000000	         -0.44426030	         -0.54329979	          0.70121569	
          2.46000000	         -0.42764839	         -0.53998969	          0.69096409	
          2.47000000	         -0.41226662	         -0.53544514	          0.68105802	
